<?xml version="1.0" encoding="utf-8"?>
<!-- Generator: Adobe Illustrator 21.1.0, SVG Export Plug-In . SVG Version: 6.00 Build 0)  -->
<svg version="1.1" id="Layer_1" xmlns="http://www.w3.org/2000/svg" xmlns:xlink="http://www.w3.org/1999/xlink" x="0px" y="0px"
	 viewBox="0 0 154.7 154.7" style="enable-background:new 0 0 154.7 154.7;" xml:space="preserve">
<style type="text/css">
	.st0{fill:none;stroke:#000000;stroke-width:5;stroke-miterlimit:10;}
	.st1{fill:#93C840;}
	.st2{fill:#FD8444;}
	.st3{fill:#2D8DD1;}
</style>
<g>
	<circle cx="-911.8" cy="543.2" r="14.3"/>
	<circle cx="-1008.5" cy="591.5" r="14.3"/>
	<circle cx="-942.6" cy="615.6" r="16.5"/>
	<circle cx="-886.5" cy="638.9" r="14.3"/>
	<circle cx="-971.7" cy="538.7" r="9.8"/>
	<circle cx="-880" cy="580.4" r="9.8"/>
	<circle cx="-994.3" cy="642.9" r="9.8"/>
	<path d="M-942.4,635.2L-942.4,635.2c-14.2,0-25.8,11.5-25.8,25.7v19.3h51.5v-19.3C-916.7,646.7-928.2,635.2-942.4,635.2z"/>
	<path class="st0" d="M-1008.5,590.1c9.2,22.5,40.3,45.1,40.3,45.1"/>
	<path class="st0" d="M-917.7,616.6c0,0,32.3-23.2,36.7-38.3"/>
	<path class="st0" d="M-889.8,635.2c0,0-30.4-56-81.9-96.5"/>
	<path class="st0" d="M-1004,590.1c36.2-33.1,92.2-46.9,92.2-46.9s27.7,23.7,30.3,37.2c5.8,29.3-5,58.5-5,58.5"/>
	<path class="st0" d="M-994.3,642.9c0,0-13.4-29.8-13.4-50.2s35-54.9,35-54.9s38.7-0.5,60.8,5.5"/>
	<path class="st0" d="M-877.7,578.3c0,0-86.7-9.4-130.8,12.8"/>
	<path class="st0" d="M-994.3,646.2c0,0,24.1-66.2,23.1-108.5"/>
</g>
<g>
	<polygon class="st1" points="-188.2,105.8 -188.2,138.8 -164.1,138.8 -164.1,105.6 -176.1,96.6 	"/>
	<polygon class="st1" points="-174.6,34.9 -171,38.2 -146.7,59.9 -146.7,41.9 -173.1,15.9 -203.3,39.3 -203.3,55.7 -178.5,37.8 	"/>
	<polygon class="st1" points="-175,42.7 -217.2,73.2 -217.2,120.3 -176.1,89 -134.3,120.3 -134.3,79.2 	"/>
</g>
<path class="st2" d="M83.8,28.5c7,0.2,14,1.9,20.3,4.8c4.6,2.1,8.7,4.9,12.4,8.2c3.6,3.2,6.7,6.8,9.3,10.8
	c3.2,4.9,5.4,10.2,6.7,15.9c0.6,2.5,1,5.1,1.2,7.7c0.1,1.7,0.3,3.4,0.2,5.1c-0.1,1.7-0.2,3.3-0.4,4.9c-0.4,3.5-1.2,7-2.3,10.4
	c-2.1,6.5-5.4,12.3-9.9,17.4c-6.2,7-13.6,12.1-22.5,15.1c-3.3,1.1-6.7,1.9-10.1,2.2c-1.5,0.2-2.9,0.2-4.4,0.3
	c-0.8,0.1-1.6,0.1-2.3,0.1c-1.3,0-2.6-0.1-3.9-0.2c-2.2-0.2-4.5-0.5-6.7-1c-5.9-1.3-11.4-3.5-16.5-6.8c-3.7-2.4-7.2-5.2-10.2-8.5
	c-4.7-5-8.3-10.8-10.6-17.3c-1.2-3.3-2.1-6.7-2.6-10.2c-0.2-1.5-0.3-2.9-0.4-4.4c-0.1-1.5-0.1-3-0.1-4.5c0-2.1,0.2-4.1,0.5-6.2
	c0.1-0.5,0.1-1.1,0.2-1.6c0.1-0.5,0.1-0.5,0.6-0.4c3.4,0.9,6.8,1.8,10.2,2.7c0.3,0.1,0.4,0.2,0.3,0.5c-0.1,1.1-0.3,2.3-0.4,3.4
	c-0.1,1.5-0.1,3,0,4.5c0.1,1.5,0.2,3,0.4,4.5c0.5,3.6,1.5,7,3,10.3c2.2,4.9,5.3,9.2,9.2,12.9c5.7,5.3,12.4,8.7,20.1,10.1
	c1.9,0.4,3.8,0.6,5.7,0.6c8.7,0.2,16.7-1.9,24-6.8c2-1.3,3.8-2.8,5.5-4.5c3.3-3.2,6-6.8,8.1-10.9c2-4,3.3-8.2,3.9-12.6
	c0.3-2.3,0.4-4.7,0.3-7c-0.4-8.8-3.4-16.7-8.9-23.6c-5-6.2-11.4-10.5-19-13c-2.8-0.9-5.6-1.5-8.5-1.7c-2.6-0.2-5.2-0.2-7.8,0
	c-4.8,0.5-9.4,1.8-13.7,4c-3.5,1.8-6.7,4-9.6,6.6c-3.4,3.1-6.1,6.7-8.2,10.8c-0.7,1.3-1.3,2.7-1.9,4.1c-0.2,0.5-0.3,0.5-0.8,0.4
	c-3.3-0.9-6.7-1.8-10-2.7c-0.1,0-0.2-0.1-0.4-0.1c0.3-0.8,0.6-1.5,0.9-2.3c1.4-3.3,3-6.4,4.9-9.3c2.2-3.4,4.8-6.6,7.8-9.4
	c3.2-3,6.8-5.5,10.7-7.5c4.4-2.3,9.1-4,14-5.1C75.9,28.8,79.9,28.4,83.8,28.5z M51.8,68.1c3.3,0.9,6.6,1.8,9.9,2.7
	c0.6,0.2,0.7,0.1,1-0.5c1.5-3,3.5-5.5,6.2-7.6c4.7-3.6,10-5.1,15.9-4.6c2.4,0.2,4.7,0.9,6.9,1.9c4.8,2.3,8.4,5.8,10.7,10.6
	c1.3,2.7,2,5.5,2.2,8.5c0.1,1.9,0,3.8-0.5,5.6c-1.3,5.9-4.5,10.5-9.5,13.9c-4.2,2.8-8.8,3.9-13.8,3.6c-1.9-0.1-3.7-0.5-5.5-1.1
	c-5.9-2.1-10.1-6-12.8-11.6c-1.6-3.3-2.2-6.9-2-10.6c0-0.6,0-0.8-0.6-0.9c-3.3-0.9-6.6-1.8-9.9-2.6c-0.5-0.1-0.5-0.1-0.5,0.3
	c-0.2,1.7-0.4,3.4-0.3,5.2c0.1,1.4,0.1,2.8,0.3,4.1c0.5,3.8,1.7,7.4,3.5,10.8c2.1,3.9,4.8,7.3,8.2,10.1c6.5,5.4,14.1,7.9,22.5,7.7
	c2.3-0.1,4.6-0.4,6.9-0.9c6.5-1.6,12-4.9,16.6-9.8c2.1-2.3,3.9-4.8,5.2-7.5c2.5-5,3.7-10.4,3.6-16c-0.1-2.3-0.3-4.6-0.9-6.9
	c-2.1-8.7-6.9-15.5-14.3-20.4c-5.4-3.5-11.3-5.2-17.7-5.4c-1.9-0.1-3.8,0.1-5.6,0.4c-6.9,1.1-12.8,4-17.9,8.8
	c-3.3,3.1-5.9,6.8-7.7,11c-0.1,0.3-0.3,0.7-0.4,1C51.6,68,51.7,68,51.8,68.1z M80.1,93.6c7.3,1.3,14.2-3.4,15.8-10.5
	c1.6-7.4-2.9-14.4-10.2-16.2c-6.8-1.7-12.8,2.3-14.9,6.3c0.2,0.1,0.3,0.1,0.5,0.2c2.8,0.8,5.6,1.5,8.5,2.3c1.4,0.4,2.7,0.7,4.1,1.1
	c1,0.3,1.7,0.9,2.1,1.9c0.4,0.9,0.4,1.8,0.1,2.7c-0.6,1.9-2.4,3.1-4.4,2.5c-3.6-1-7.3-2-11-2.9c-0.6-0.2-1.2-0.3-1.8-0.5
	C68.7,85.5,72.4,92.3,80.1,93.6z M1.6,71.1c5.4,1.4,14,3.8,19.4,5.3c0.6,0.2,1.1,0,1.5-0.4c2.9-3,5.8-6.1,8.7-9.1
	c0.6-0.7,0.8-1.3,0.5-2.1c-0.7-2.2-1.4-4.5-2-6.7c-0.5-1.7-1-3.5-1.5-5.2c-0.2-0.6-0.6-1-1.2-1.2c-0.2,0-0.4-0.1-0.6-0.2
	c-5.2-1.4-17.7-4.8-17.7-4.8s5.5,12,7,14.8c0.3,0.5,0.3,0.4-0.2,0.8L1.6,71.1z"/>
<g>
	<circle class="st3" cx="-217.2" cy="89.1" r="12.6"/>
	<path class="st3" d="M-169.5,97c1.6-7.1,3-17.1,2-27.7c3.3-0.8,5.7-3.7,5.7-7.2c0-4.1-3.3-7.5-7.5-7.5c-0.8,0-1.5,0.1-2.2,0.3
		c-3.3-5.3-8.5-11-13-15.4c1.1-1.7,1.8-3.7,1.8-5.9c0-6-4.9-10.9-10.9-10.9c-4.6,0-8.6,2.9-10.2,6.9c-10.1-1.5-21.4-2-28.6-2.1
		c-1.1-2.8-3.8-4.8-7-4.8c-4.1,0-7.5,3.3-7.5,7.5c0,1,0.2,2,0.6,2.9c-5.6,6.1-14.6,16.8-19.4,26.8c-0.6-0.1-1.2-0.2-1.9-0.2
		c-6,0-10.9,4.9-10.9,10.9c0,5.9,4.8,10.8,10.7,10.9c1.5,8.3,4.4,16.8,6.6,22.4c-1.8,1.4-3,3.5-3,5.9c0,4.1,3.3,7.5,7.5,7.5
		s7.5-3.3,7.5-7.5c0-2.3-1-4.3-2.6-5.7c0.8-2.3,1.6-5.1,2.6-8.1c6,5.5,11,9.2,11.5,9.5l2.2-3.1c-0.1-0.1-5.9-4.3-12.5-10.5
		c0.8-2.6,1.6-5.4,2.4-8.4c1.9-6.9,3.4-13.4,4.7-19.5c10.2-1.8,21-2.7,31.1-3c6.9,7.8,12.7,15.4,17.4,22c-3.8,3.1-6.6,5.1-6.7,5.1
		l2.2,3.1c0.3-0.2,3-2.2,6.6-5.1c3.6,5.2,6.4,9.6,8.4,12.8c-2,2-3.3,4.7-3.3,7.8c0,6,4.9,10.9,10.9,10.9c6,0,10.9-4.9,10.9-10.9
		C-163.4,102.5-165.9,98.8-169.5,97z M-174.7,57c-0.3,0.3-0.5,0.6-0.7,0.9c-6.9-0.5-17.5-1-29.4-0.8c-1.2,0-2.3,0.1-3.4,0.1
		c-3.6-4.1-7.5-8.2-11.7-12.3c6.3-2.7,12.1-4.8,16.6-6.3c1.8,3.6,5.5,6,9.7,6c2.5,0,4.7-0.8,6.5-2.2
		C-182.6,46.9-177.7,52.3-174.7,57z M-204.5,34.9c-5,1.7-11.4,4-18.5,7.1c-3.1-2.9-6.3-5.8-9.6-8.7c0.3-0.6,0.5-1.2,0.6-1.9
		c7.2,0.2,17.9,0.6,27.5,2c0,0.1,0,0.1,0,0.2C-204.6,34.1-204.5,34.5-204.5,34.9z M-237.3,37.4c0.8-0.2,1.6-0.6,2.2-1.1
		c2.9,2.4,5.6,4.9,8.3,7.4c-3.8,1.7-7.8,3.7-11.7,5.8C-237.9,45.2-237.5,41.2-237.3,37.4z M-243.9,36.2c0.8,0.6,1.8,1.1,2.8,1.3
		c-0.3,4.6-0.8,9.4-1.6,14.3c-5.8,3.3-11.5,7.1-16.9,11.4c-0.7-0.8-1.6-1.5-2.5-2C-257.7,52.1-249.3,42.1-243.9,36.2z M-243.6,56.8
		c-0.2,1.3-0.5,2.7-0.8,4c-2.9,0.6-5.7,1.2-8.3,1.9C-249.6,60.6-246.6,58.6-243.6,56.8z M-255.4,102.6c-0.4-0.1-0.9-0.1-1.3-0.1
		c-0.3,0-0.6,0-1,0.1c-2.1-5.5-4.9-13.7-6.4-21.6c0.2-0.1,0.5-0.2,0.7-0.2c3.3,4.5,7.2,8.8,10.9,12.4
		C-253.5,96.7-254.5,99.9-255.4,102.6z M-251.2,89c-3.1-3.1-6.3-6.7-8.9-10.3c2.1-2,3.5-4.8,3.5-8c0-0.9-0.1-1.8-0.3-2.6
		c3.8-1.2,7.7-2.3,11.9-3.1C-247,73.5-249.1,81.8-251.2,89z M-240.2,60.1c0.4-2,0.7-3.9,1-5.8c5.2-2.9,10.5-5.5,15.4-7.7
		c3.7,3.6,7.2,7.2,10.5,10.9C-223.2,57.8-232.2,58.7-240.2,60.1z M-205,61c11.4-0.2,21.5,0.3,28.3,0.7c0,0.1,0,0.3,0,0.4
		c0,1.6,0.5,3,1.3,4.3c-2.5,3.4-6.3,7.3-11.1,11.7c-1,0.9-2,1.8-3,2.6C-193.9,74.7-199.1,68-205,61z M-187.4,83.8
		c5-4.2,10.9-9.7,14.9-15c0.4,0.2,0.8,0.3,1.2,0.4c0.9,10.1-0.4,19.8-1.9,26.7c-0.3,0-0.7-0.1-1-0.1c-1.6,0-3.1,0.4-4.5,1
		C-180.8,93.6-183.7,89.1-187.4,83.8z"/>
	<path class="st3" d="M-217,104.1c-10.9,0-19.7,8.8-19.7,19.7v14.7h39.4v-14.7C-197.3,112.9-206.2,104.1-217,104.1z"/>
</g>
</svg>
